<svg width="26" height="26" viewBox="0 0 26 26" fill="none" xmlns="http://www.w3.org/2000/svg">
<g clip-path="url(#clip0_487_12457)" filter="url(#filter0_d_487_12457)">
<path d="M14.2471 10.0964C14.2203 10.0964 14.1943 10.0871 14.1735 10.0675C14.1319 10.0276 14.131 9.9621 14.1709 9.92129C14.3303 9.75973 14.5106 9.64069 14.7073 9.56756C14.9595 9.47318 15.1502 9.48253 15.6104 9.50464C15.7057 9.50889 15.8123 9.51399 15.9345 9.51909C16.0601 9.5242 16.3773 9.5361 16.6079 9.5378C16.8332 9.5395 17.218 9.53185 17.965 9.44427C18.5898 9.37114 19.0024 9.32267 19.5778 9.19853C19.5865 9.19683 20.4895 8.99701 21.4567 8.47408C21.5407 8.42901 21.7947 8.29126 21.7869 8.19773C21.7799 8.11185 21.5607 8.01406 21.4029 7.9758C20.415 8.02682 19.4383 8.13225 18.4997 8.28956C18.4105 8.30487 16.2993 8.65264 15.1398 8.43071C14.5409 8.31592 14.1622 7.9843 14.1466 7.96985C14.1301 7.95539 14.1163 7.94264 14.1093 7.93584C14.0677 7.89587 14.066 7.83125 14.1067 7.78958C14.1466 7.74877 14.2133 7.74707 14.2558 7.78703C14.2627 7.79299 14.274 7.80404 14.2887 7.81679C14.2922 7.82019 14.6423 8.1246 15.1805 8.22749C16.3019 8.44176 18.4434 8.08889 18.465 8.08549C19.4157 7.92648 20.4063 7.82019 21.4081 7.76833C21.4177 7.76833 21.4281 7.76833 21.4376 7.77088C21.5269 7.79128 21.9749 7.90693 21.9975 8.18072C22.0157 8.4069 21.7297 8.56166 21.5589 8.65434C20.6524 9.14411 19.7763 9.36774 19.6237 9.39835C19.0379 9.52675 18.621 9.57521 17.9901 9.64919C17.231 9.73847 16.8366 9.74612 16.6061 9.74357C16.3721 9.74187 16.0523 9.72997 15.9258 9.72487C15.8027 9.71977 15.6953 9.71466 15.6 9.71041C15.1588 9.68915 14.9933 9.68065 14.7827 9.75973C14.6155 9.82265 14.4603 9.92469 14.3225 10.0641C14.3017 10.0854 14.274 10.0956 14.2471 10.0956V10.0964Z" fill="white"/>
<path d="M10.8092 8.97406C10.7918 8.97406 10.7745 8.96981 10.758 8.9613C10.7069 8.93324 10.6887 8.87117 10.7164 8.821C10.7806 8.70706 10.8066 8.59823 10.7936 8.49704C10.7468 8.12886 10.2008 7.89078 9.99453 7.80149L9.97633 7.79384C9.95206 7.78364 7.51335 6.6961 5.52529 3.84505C5.3459 3.58741 5.32164 3.37313 5.3095 3.27025L5.3069 3.24729C5.27484 2.99305 5.4005 2.78642 5.46723 2.67504C5.4941 2.62997 5.55216 2.61211 5.60069 2.63337C5.74195 2.69459 5.87975 2.76687 6.01061 2.8485C6.24633 2.99475 6.46473 3.17246 6.65799 3.37653C7.03411 3.77277 7.45616 4.12905 7.86521 4.47427C8.133 4.70045 8.40945 4.93428 8.67118 5.17662C9.47455 5.92233 10.5908 6.56431 11.9878 7.08554C12.0424 7.10595 12.0693 7.16547 12.0485 7.21904C12.0277 7.27261 11.967 7.29897 11.9124 7.27856C10.4894 6.74712 9.35062 6.09069 8.52645 5.32627C8.26819 5.08734 7.99347 4.85435 7.72741 4.62987C7.31403 4.28125 6.88764 3.92072 6.50806 3.52108C6.43613 3.44541 6.23073 3.22858 5.89795 3.02281C5.80262 2.96329 5.70295 2.90972 5.60156 2.86125C5.54869 2.95733 5.49843 3.08148 5.51663 3.22178L5.51923 3.24814C5.52963 3.34082 5.54956 3.51428 5.69949 3.72941C7.65462 6.53285 10.0387 7.59572 10.0621 7.60592L10.0803 7.61358C10.3161 7.71561 10.9418 7.98771 11.0033 8.47238C11.0215 8.61778 10.9877 8.76913 10.901 8.92134C10.882 8.95535 10.8456 8.97491 10.8092 8.97491V8.97406Z" fill="white"/>
<path d="M14.1229 7.83125C14.1169 7.83125 14.1108 7.83125 14.1047 7.82955C14.0476 7.81935 14.0094 7.76578 14.019 7.70966C14.2928 6.18507 14.5641 4.86966 14.8249 3.79998C15.2227 2.1674 15.2652 1.99649 15.2808 1.96418C15.2834 1.95908 15.5399 1.41659 15.6352 0.54503C15.6439 0.469353 15.6474 0.360515 15.585 0.293341C15.5564 0.262731 15.5148 0.241473 15.4602 0.230419C15.4567 0.230419 15.4532 0.228719 15.4498 0.227868C15.3752 0.20491 15.305 0.200659 15.2409 0.214263C15.1646 0.231269 15.0381 0.352862 14.8657 0.576491C14.019 1.67338 13.6732 3.05852 13.3386 4.39774C13.1965 4.96574 13.0501 5.5533 12.8663 6.11535C12.8603 6.13405 12.8533 6.15786 12.8455 6.18507C12.7987 6.34833 12.7121 6.65359 12.4703 6.93078C12.3914 7.02092 12.303 7.10254 12.206 7.17482C12.1592 7.20968 12.0933 7.20033 12.0586 7.15441C12.0231 7.1085 12.0326 7.04387 12.0794 7.00986C12.1644 6.94694 12.2424 6.87466 12.3108 6.79644C12.5223 6.5541 12.5985 6.28796 12.6436 6.1298C12.6523 6.10004 12.6592 6.07368 12.6661 6.05242C12.8473 5.49803 12.9929 4.91387 13.1341 4.34927C13.4738 2.98964 13.8248 1.58325 14.6984 0.452347C14.9168 0.170048 15.0606 0.0425028 15.1958 0.0127423C15.2955 -0.00936547 15.4012 -0.00341337 15.5087 0.028898C15.604 0.0493052 15.682 0.0909699 15.7401 0.153892C15.8736 0.297593 15.8519 0.500814 15.8441 0.567138C15.7444 1.47611 15.4818 2.02965 15.4706 2.05261C15.4558 2.09853 15.2955 2.75581 15.0294 3.84504C14.7686 4.91387 14.4982 6.22503 14.2252 7.74537C14.2165 7.79554 14.1715 7.8304 14.1212 7.8304L14.1229 7.83125Z" fill="white"/>
<path d="M4.84236 13.9075C4.43591 13.9075 4.13345 13.7647 4.00952 13.5045C3.99132 13.4662 3.99826 13.422 4.02772 13.3914C5.03215 12.3158 6.3529 11.5913 7.63032 10.8915C8.67028 10.3218 9.74491 9.73255 10.641 8.95708C10.6843 8.91967 10.7511 8.92307 10.7901 8.96643C10.8282 9.00895 10.8247 9.07442 10.7805 9.11268C9.86711 9.90261 8.78208 10.497 7.73258 11.0726C6.49156 11.7529 5.20981 12.4552 4.23398 13.4764C4.43331 13.7596 4.95589 13.7043 5.11882 13.6796C6.5037 13.4662 7.73258 12.7035 8.92074 11.9663C9.42512 11.6534 9.94597 11.3303 10.4746 11.0505L10.5067 11.0335C10.6453 10.9587 10.9339 10.8039 11.3274 10.7342C11.5432 10.6959 11.765 10.6866 11.9869 10.7061C12.045 10.7112 12.0874 10.7614 12.0822 10.8184C12.077 10.8754 12.0259 10.917 11.9678 10.9119C11.765 10.8941 11.5614 10.9034 11.3638 10.9374C11.0041 11.0012 10.7459 11.1398 10.6063 11.2146L10.5725 11.2325C10.05 11.5088 9.53172 11.8302 9.0308 12.1406C7.82445 12.8889 6.57736 13.6626 5.14915 13.8829C5.03995 13.8999 4.93682 13.9075 4.83889 13.9075H4.84236Z" fill="white"/>
<path d="M15.761 18C15.4767 18 15.1647 17.8138 14.8891 17.4694C13.9965 16.353 13.6212 14.9534 13.2581 13.5988C13.1073 13.0368 12.9513 12.4552 12.7607 11.9034C12.7537 11.8821 12.7459 11.8566 12.7364 11.8268C12.6887 11.6687 12.6082 11.4051 12.3924 11.1653C12.3222 11.0879 12.2433 11.0173 12.1575 10.9553C12.1107 10.9221 12.1003 10.8566 12.1341 10.8107C12.1688 10.7648 12.2346 10.7546 12.2814 10.7878C12.3794 10.8583 12.4704 10.9383 12.5501 11.0275C12.7971 11.3013 12.8889 11.604 12.9383 11.7665C12.9461 11.7937 12.9539 11.8166 12.96 11.8353C13.1533 12.394 13.3101 12.979 13.4618 13.5444C13.8197 14.8777 14.1889 16.2569 15.0547 17.3393C15.1569 17.4669 15.501 17.8563 15.8433 17.7823C15.839 16.3827 15.3883 15.0112 14.9524 13.6839C14.5841 12.5615 14.2028 11.4008 14.0832 10.2121C14.0771 10.1551 14.1196 10.105 14.1776 10.099C14.2357 10.0931 14.2868 10.1347 14.2929 10.1917C14.4108 11.3583 14.7877 12.5079 15.1535 13.6201C15.6024 14.9865 16.066 16.3997 16.0539 17.8589C16.0539 17.9005 16.0279 17.9379 15.988 17.9541C15.9152 17.983 15.839 17.9975 15.7601 17.9975L15.761 18Z" fill="white"/>
<path d="M15.0426 1.43954C14.9906 1.43954 14.9412 1.42594 14.8996 1.39958C14.7523 1.3052 14.7679 1.09942 14.8138 0.984634C14.8632 0.861341 14.9837 0.733796 15.131 0.74655C15.2012 0.752502 15.2471 0.788215 15.2653 0.80182C15.3867 0.894502 15.4508 1.10198 15.3529 1.26183C15.3017 1.34516 15.2125 1.40893 15.1145 1.43104C15.0903 1.43614 15.066 1.43954 15.0426 1.43954ZM15.0149 1.22612C15.0261 1.23292 15.0452 1.23462 15.0669 1.22952C15.1085 1.22017 15.1509 1.19041 15.1726 1.15554C15.2142 1.08752 15.1778 0.997389 15.1353 0.964227C15.1284 0.959125 15.1206 0.952323 15.1128 0.952323C15.0885 0.948922 15.0339 1.00079 15.0105 1.06031C14.9871 1.11898 14.9845 1.20741 15.0149 1.22697V1.22612Z" fill="white"/>
<path d="M14.7775 2.32475C14.7342 2.32475 14.6909 2.31284 14.6554 2.28903C14.599 2.25162 14.5635 2.187 14.5592 2.11217C14.554 2.03139 14.5852 1.95402 14.6424 1.9047C14.6961 1.85878 14.7741 1.83752 14.8503 1.84858C14.9136 1.85793 14.9647 1.88769 14.9925 1.93276C15.0098 1.95912 15.0167 1.99228 15.015 2.0399C15.0124 2.10707 15.0089 2.21931 14.911 2.28393C14.8711 2.31029 14.8243 2.3239 14.7784 2.3239L14.7775 2.32475ZM14.7732 2.11727C14.7775 2.11727 14.7871 2.11727 14.7914 2.11387C14.7983 2.10707 14.8009 2.07646 14.8018 2.0535C14.7931 2.0535 14.7845 2.0569 14.7793 2.06115C14.7663 2.07306 14.7645 2.10707 14.7723 2.11812L14.7732 2.11727Z" fill="white"/>
<path d="M14.319 3.86373C14.2739 3.86373 14.2289 3.85268 14.189 3.82972C14.0789 3.7668 14.0512 3.63925 14.0616 3.54912C14.0746 3.43178 14.1552 3.36376 14.2081 3.31954C14.2462 3.28723 14.293 3.25407 14.3563 3.25067C14.4377 3.24556 14.5192 3.29488 14.5582 3.37396C14.5894 3.43773 14.5894 3.4947 14.585 3.54742C14.5772 3.6384 14.566 3.76255 14.4516 3.82887C14.4117 3.85183 14.3649 3.86373 14.319 3.86373ZM14.2947 3.65116C14.3103 3.65966 14.332 3.65796 14.3441 3.65116C14.3658 3.6384 14.371 3.57803 14.3753 3.52871C14.3788 3.4913 14.3753 3.47855 14.3693 3.46409C14.3693 3.46239 14.3675 3.46154 14.3667 3.45984C14.3632 3.46239 14.358 3.46579 14.3502 3.47259C14.3025 3.51341 14.2748 3.53722 14.2713 3.57208C14.2696 3.58398 14.2705 3.6367 14.2947 3.65031V3.65116Z" fill="white"/>
<path d="M13.4196 6.62042C13.3841 6.62042 13.3494 6.61362 13.3165 6.59661C13.2281 6.55155 13.1735 6.44356 13.1683 6.30666C13.1639 6.18252 13.2038 6.02351 13.3277 5.94954C13.4343 5.88576 13.6068 5.88491 13.6943 5.98525C13.7273 6.02266 13.7377 6.06348 13.7446 6.10259C13.7654 6.21908 13.7931 6.37894 13.6744 6.50478C13.6129 6.57025 13.5141 6.62127 13.4196 6.62127V6.62042ZM13.4135 6.41295C13.4283 6.41805 13.4846 6.40019 13.5201 6.36278C13.5643 6.31602 13.5557 6.24289 13.5375 6.1366C13.5349 6.1213 13.5331 6.11619 13.5323 6.11619C13.5227 6.10939 13.4673 6.10769 13.4369 6.12555C13.4031 6.14595 13.3789 6.21398 13.378 6.2871C13.378 6.36618 13.404 6.407 13.4127 6.41295H13.4135Z" fill="white"/>
<path d="M13.4454 7.27092C13.4289 7.27092 13.4124 7.26752 13.3969 7.25902L13.0658 7.08896C13.0138 7.0626 12.9939 7.00053 13.0207 6.94951C13.0476 6.89934 13.1109 6.87893 13.1629 6.90529L13.4939 7.07535C13.5459 7.10171 13.5658 7.16378 13.539 7.2148C13.5199 7.25052 13.4835 7.27007 13.4454 7.27007V7.27092Z" fill="white"/>
<path d="M13.1532 8.19689C13.1454 8.19689 13.1376 8.19689 13.1298 8.19434C12.9651 8.15863 12.8239 8.04809 12.7502 7.90014C12.7251 7.84912 12.7467 7.78705 12.7996 7.76239C12.8516 7.73773 12.9149 7.75899 12.94 7.81085C12.9851 7.90184 13.0752 7.97156 13.1757 7.99367C13.2329 8.00642 13.2684 8.06169 13.2554 8.11696C13.2442 8.16543 13.2008 8.19774 13.1523 8.19774L13.1532 8.19689Z" fill="white"/>
<path d="M11.9445 8.71645C11.9124 8.71645 11.8812 8.70285 11.8604 8.67564C11.8249 8.63057 11.8344 8.5651 11.8804 8.53109C11.9384 8.48772 11.9809 8.42565 12 8.35678C12.0156 8.30151 12.0728 8.26919 12.1291 8.2845C12.1854 8.29981 12.2184 8.35592 12.2028 8.41119C12.1716 8.52343 12.1022 8.62462 12.0078 8.69519C11.9887 8.70965 11.9662 8.71645 11.9436 8.71645H11.9445Z" fill="white"/>
<path d="M11.2123 7.9418C11.162 7.9418 11.1178 7.90694 11.1092 7.85677C11.0988 7.80065 11.136 7.74708 11.1941 7.73603C11.2617 7.72412 11.3276 7.68756 11.3726 7.63739C11.4116 7.59488 11.4775 7.59063 11.5217 7.62889C11.565 7.66715 11.5693 7.73178 11.5303 7.77514C11.4532 7.86102 11.3466 7.91969 11.2322 7.9401C11.2262 7.94095 11.2192 7.9418 11.2132 7.9418H11.2123Z" fill="white"/>
<path d="M13.3014 9.22322C13.2537 9.22322 13.2104 9.19176 13.1991 9.14414C13.1792 9.06081 13.1818 8.97408 13.2086 8.8933C13.226 8.83888 13.2858 8.80912 13.3412 8.82613C13.3967 8.84314 13.427 8.90181 13.4097 8.95623C13.395 9.00044 13.3932 9.05061 13.4045 9.09568C13.4184 9.15094 13.3837 9.20706 13.3265 9.22067C13.3178 9.22237 13.31 9.22322 13.3014 9.22322Z" fill="white"/>
<path d="M14.6577 9.19686C14.6083 9.19686 14.5641 9.162 14.5546 9.11268L14.5052 8.85249C14.4948 8.79637 14.532 8.7428 14.5892 8.73175C14.6464 8.72154 14.701 8.75811 14.7123 8.81423L14.7617 9.07442C14.7721 9.13054 14.7348 9.18411 14.6776 9.19516C14.6716 9.19601 14.6646 9.19686 14.6586 9.19686H14.6577Z" fill="white"/>
<path d="M12.4785 9.60838C12.4785 9.60838 12.4716 9.60838 12.4681 9.60838C12.3485 9.59733 12.248 9.50124 12.2324 9.38475C12.2246 9.32778 12.2662 9.27676 12.3234 9.26911C12.3806 9.26146 12.4334 9.30227 12.4412 9.35839C12.4438 9.3788 12.4664 9.40091 12.488 9.40261C12.5461 9.40771 12.5886 9.45873 12.5834 9.51485C12.5782 9.56842 12.5322 9.60838 12.4785 9.60838Z" fill="white"/>
<path d="M12.3482 10.3235C12.3387 10.3235 12.3283 10.3218 12.3187 10.3192C12.1792 10.2793 12.0769 10.1475 12.0752 10.0046C12.0752 9.94764 12.1211 9.90087 12.1792 9.90002H12.1801C12.2381 9.90002 12.2849 9.94594 12.2858 10.0021C12.2858 10.0539 12.3265 10.1058 12.3777 10.1203C12.4331 10.1364 12.466 10.1934 12.4496 10.2486C12.4366 10.2937 12.3941 10.3235 12.3482 10.3235Z" fill="white"/>
<path d="M8.27361 11.934C8.23808 11.934 8.20341 11.9263 8.17048 11.9101C8.08208 11.8651 8.02662 11.7571 8.02229 11.6193C8.01795 11.4952 8.05782 11.3362 8.18175 11.2622C8.28834 11.1984 8.4608 11.1976 8.54833 11.2979C8.58127 11.3353 8.59167 11.3762 8.5986 11.4153C8.61853 11.5318 8.64713 11.6916 8.5284 11.8175C8.466 11.8829 8.36807 11.934 8.27361 11.934ZM8.26754 11.7265C8.28228 11.7316 8.33861 11.7137 8.37414 11.6763C8.41834 11.6295 8.40967 11.5564 8.39147 11.4501C8.38887 11.4348 8.38714 11.4297 8.38627 11.4289C8.37674 11.4221 8.32128 11.4204 8.29094 11.4382C8.25714 11.4586 8.23201 11.5267 8.23201 11.5998C8.23201 11.678 8.25801 11.7197 8.26668 11.7256L8.26754 11.7265Z" fill="white"/>
<path d="M20.923 8.54464C20.8779 8.54464 20.8329 8.53359 20.793 8.51063C20.6829 8.44771 20.6552 8.32016 20.6656 8.23003C20.6786 8.11269 20.7592 8.04466 20.8121 8.00045C20.8502 7.96814 20.897 7.93498 20.9603 7.93157C21.0426 7.92647 21.1232 7.97579 21.1622 8.05487C21.1934 8.11864 21.1934 8.17561 21.189 8.22748C21.1812 8.31846 21.17 8.44261 21.0556 8.50978C21.0157 8.53274 20.9689 8.54464 20.923 8.54464ZM20.8987 8.33207C20.9143 8.34057 20.936 8.33887 20.9481 8.33207C20.9698 8.31931 20.975 8.25894 20.9793 8.20962C20.9828 8.17221 20.9793 8.15946 20.9733 8.145C20.9733 8.1433 20.9715 8.14245 20.9707 8.1416C20.9672 8.14415 20.962 8.14755 20.9542 8.15435C20.9065 8.19517 20.8788 8.21898 20.8753 8.25384C20.8736 8.26574 20.8745 8.31846 20.8987 8.33207Z" fill="white"/>
<path d="M20.2614 8.68498C20.2181 8.68498 20.1748 8.67307 20.1392 8.64926C20.0829 8.61185 20.0474 8.54723 20.043 8.4724C20.0378 8.39162 20.069 8.31425 20.1254 8.26493C20.1791 8.21901 20.2571 8.19775 20.3334 8.20881C20.3966 8.21816 20.4478 8.24792 20.4755 8.29299C20.4928 8.32105 20.4998 8.35336 20.498 8.40013C20.4954 8.4673 20.492 8.57954 20.394 8.64416C20.3542 8.67052 20.3074 8.68413 20.2614 8.68413V8.68498ZM20.2571 8.47835C20.2614 8.47835 20.271 8.47835 20.2753 8.47495C20.2822 8.46815 20.2848 8.43754 20.2857 8.41458C20.277 8.41458 20.2684 8.41798 20.2632 8.42223C20.2502 8.43329 20.2493 8.46815 20.2562 8.4792L20.2571 8.47835Z" fill="white"/>
<path d="M18.9484 9.06419C18.9034 9.06419 18.8583 9.05313 18.8184 9.03018C18.7075 8.96725 18.6806 8.83971 18.691 8.74958C18.704 8.63224 18.7846 8.56421 18.8375 8.51915C18.8756 8.48683 18.9224 8.45367 18.9857 8.45027C19.068 8.44602 19.1495 8.49449 19.1876 8.57356C19.2188 8.63734 19.2188 8.69431 19.2145 8.74618C19.2067 8.83716 19.1954 8.9613 19.081 9.02762C19.0411 9.05058 18.9944 9.06249 18.9484 9.06249V9.06419ZM18.9242 8.85161C18.9398 8.86012 18.9623 8.85841 18.9736 8.85161C18.9952 8.83886 19.0004 8.77849 19.0047 8.72917C19.0082 8.69176 19.0048 8.679 18.9987 8.66455C18.9987 8.66285 18.9969 8.662 18.9961 8.66115C18.9926 8.6637 18.9874 8.6671 18.9796 8.6739C18.932 8.71471 18.9051 8.73852 18.9008 8.77339C18.899 8.78529 18.8999 8.83801 18.9242 8.85161Z" fill="white"/>
<path d="M7.58614 12.087C7.54281 12.087 7.49948 12.0751 7.46395 12.0513C7.40761 12.0139 7.37208 11.9493 7.36775 11.8744C7.36255 11.7937 7.39375 11.7163 7.45008 11.667C7.50381 11.6211 7.58181 11.5998 7.65807 11.6108C7.72134 11.6202 7.77247 11.65 7.8002 11.695C7.81753 11.7214 7.82447 11.7545 7.82273 11.8022C7.82013 11.8693 7.81667 11.9816 7.71874 12.0462C7.67887 12.0726 7.63207 12.0862 7.58614 12.0862V12.087ZM7.58181 11.8804C7.58614 11.8804 7.59567 11.8804 7.60001 11.877C7.60694 11.8702 7.60954 11.8396 7.61127 11.8166C7.60261 11.8166 7.59394 11.82 7.58874 11.8243C7.57574 11.8362 7.57487 11.8702 7.58181 11.8812V11.8804Z" fill="white"/>
<path d="M6.11365 13.0717C6.06165 13.0717 6.01225 13.0581 5.97065 13.0317C5.82333 12.9373 5.83893 12.7316 5.88486 12.6168C5.93426 12.4935 6.05385 12.3659 6.20205 12.3787C6.27138 12.3846 6.31817 12.4204 6.33551 12.434C6.45684 12.5266 6.52097 12.7341 6.4239 12.894C6.37277 12.9773 6.28351 13.0411 6.18558 13.0632C6.16131 13.0683 6.13705 13.0717 6.11365 13.0717ZM6.18211 12.5845C6.15611 12.5845 6.10498 12.6338 6.08158 12.6925C6.05818 12.7511 6.05558 12.8396 6.08678 12.8591C6.09805 12.8659 6.11712 12.8676 6.13878 12.8625C6.18038 12.8532 6.22284 12.8234 6.24364 12.7885C6.28524 12.7205 6.24971 12.6295 6.20638 12.5972C6.20031 12.5921 6.19165 12.5853 6.18385 12.5853C6.18385 12.5853 6.18298 12.5853 6.18211 12.5853V12.5845Z" fill="white"/>
<path d="M10.192 7.41379C10.14 7.41379 10.0906 7.40018 10.049 7.37382C9.9017 7.27944 9.91729 7.07367 9.96323 6.95888C10.0126 6.83558 10.134 6.70804 10.2804 6.72079C10.3497 6.72675 10.3965 6.76246 10.4139 6.77606C10.5352 6.8696 10.5993 7.07622 10.5023 7.23607C10.4511 7.3194 10.3619 7.38318 10.2639 7.40528C10.2397 7.41039 10.2154 7.41379 10.192 7.41379ZM10.1643 7.20036C10.1756 7.20802 10.1946 7.20887 10.2163 7.20376C10.2579 7.19441 10.3003 7.16465 10.3211 7.12979C10.3627 7.06176 10.3263 6.97163 10.2839 6.93847C10.2778 6.93337 10.2691 6.92657 10.2613 6.92657C10.2345 6.92316 10.1825 6.97418 10.1591 7.03455C10.1357 7.09322 10.1331 7.18166 10.1643 7.20121V7.20036Z" fill="white"/>
<path d="M13.6368 11.5964C13.5848 11.5964 13.5354 11.5828 13.4938 11.5564C13.3465 11.4621 13.3621 11.2563 13.4081 11.1415C13.4574 11.0182 13.5762 10.8907 13.7252 10.9034C13.7946 10.9094 13.8414 10.9451 13.8587 10.9587C13.98 11.0514 14.0442 11.2588 13.9471 11.4187C13.896 11.5029 13.8067 11.5658 13.7079 11.5879C13.6836 11.593 13.6594 11.5964 13.636 11.5964H13.6368ZM13.6091 11.383C13.6204 11.3898 13.6394 11.3915 13.6611 11.3864C13.7027 11.377 13.7452 11.3473 13.7668 11.3124C13.8084 11.2444 13.772 11.1542 13.7296 11.1211C13.7235 11.116 13.714 11.1092 13.707 11.1092C13.6854 11.1058 13.6282 11.1568 13.6048 11.2172C13.5814 11.2758 13.5788 11.3643 13.61 11.3838L13.6091 11.383Z" fill="white"/>
<path d="M15.0953 16.6855C15.0433 16.6855 14.9939 16.6718 14.9523 16.6455C14.805 16.5511 14.8206 16.3453 14.8665 16.2305C14.9159 16.1073 15.0364 15.9797 15.1837 15.9925C15.2531 15.9984 15.2999 16.0341 15.3172 16.0477C15.4385 16.1404 15.5027 16.3479 15.4056 16.5077C15.3545 16.5911 15.2652 16.6548 15.1673 16.677C15.143 16.6821 15.1187 16.6855 15.0953 16.6855ZM15.0676 16.472C15.0789 16.4797 15.0979 16.4805 15.1196 16.4754C15.1612 16.4661 15.2037 16.4363 15.2245 16.4015C15.2661 16.3334 15.2305 16.2424 15.1872 16.2101C15.1811 16.205 15.1725 16.1982 15.1647 16.1982C15.1413 16.194 15.0858 16.2459 15.0624 16.3062C15.039 16.3649 15.0364 16.4533 15.0676 16.4729V16.472Z" fill="white"/>
<path d="M14.1823 14.1966C14.1468 14.1966 14.1121 14.1889 14.0792 14.1728C13.9908 14.1277 13.9353 14.0197 13.931 13.882C13.9266 13.7578 13.9665 13.5988 14.0904 13.5249C14.197 13.4611 14.3695 13.4602 14.457 13.5606C14.49 13.598 14.5004 13.6388 14.5073 13.6779C14.5281 13.7944 14.5558 13.9543 14.4371 14.0801C14.3756 14.1456 14.2768 14.1966 14.1823 14.1966ZM14.1762 13.9891C14.191 13.9942 14.2473 13.9764 14.2828 13.9389C14.327 13.8922 14.3184 13.8191 14.3002 13.7128C14.2976 13.6975 14.2958 13.6924 14.295 13.6915C14.2854 13.6847 14.23 13.683 14.1996 13.7009C14.1658 13.7213 14.1407 13.7893 14.1407 13.8624C14.1407 13.9406 14.1667 13.9823 14.1754 13.9883L14.1762 13.9891Z" fill="white"/>
<path d="M13.9621 13.2443C13.9188 13.2443 13.8755 13.2324 13.8399 13.2086C13.7836 13.1712 13.7481 13.1066 13.7437 13.0317C13.7385 12.9509 13.7697 12.8736 13.8261 12.8243C13.8798 12.7783 13.9578 12.7571 14.034 12.7681C14.0973 12.7775 14.1484 12.8072 14.1762 12.8523C14.1935 12.8787 14.2004 12.9118 14.1987 12.9595C14.1961 13.0266 14.1926 13.1389 14.0947 13.2035C14.0548 13.2298 14.008 13.2435 13.9621 13.2435V13.2443ZM13.9578 13.0368C13.9621 13.0368 13.9717 13.0368 13.976 13.0334C13.9829 13.0266 13.9855 12.996 13.9864 12.9731C13.9777 12.9731 13.9691 12.9765 13.9639 12.9807C13.9509 12.9926 13.95 13.0266 13.9569 13.0377L13.9578 13.0368Z" fill="white"/>
<path d="M6.31832 4.08482C6.27499 4.08482 6.23166 4.07291 6.19612 4.04911C6.13979 4.01169 6.10426 3.94707 6.09993 3.87224C6.09473 3.79146 6.12593 3.71409 6.18226 3.66477C6.23599 3.61885 6.31399 3.5976 6.39025 3.60865C6.45351 3.618 6.50378 3.64776 6.53238 3.69283C6.54971 3.72004 6.55664 3.7532 6.55491 3.79997C6.55231 3.86714 6.54884 3.97938 6.45091 4.044C6.41105 4.07036 6.36425 4.08397 6.31832 4.08397V4.08482ZM6.31399 3.87819C6.31919 3.87819 6.32785 3.87819 6.33218 3.87479C6.33912 3.86799 6.34172 3.83738 6.34258 3.81442C6.33392 3.81442 6.32525 3.81782 6.32005 3.82208C6.30705 3.83313 6.30619 3.86799 6.31312 3.87905L6.31399 3.87819Z" fill="white"/>
<path d="M6.83118 4.90536C6.77918 4.90536 6.72978 4.89176 6.68818 4.8654C6.54086 4.77102 6.55646 4.56524 6.60239 4.45045C6.65178 4.32716 6.77051 4.19962 6.91957 4.21237C6.98891 4.21832 7.0357 4.25404 7.05304 4.26764C7.17437 4.36032 7.2385 4.5678 7.14143 4.72765C7.0903 4.81098 7.00104 4.87475 6.90311 4.89686C6.87884 4.90196 6.85458 4.90536 6.83118 4.90536ZM6.89964 4.41814C6.87364 4.41814 6.82165 4.46746 6.79825 4.52613C6.77485 4.5848 6.77225 4.67323 6.80345 4.69279C6.81471 4.69959 6.83378 4.70129 6.85544 4.69619C6.89704 4.68684 6.93951 4.65708 6.96031 4.62222C7.00191 4.55419 6.96637 4.46321 6.92304 4.4309C6.91697 4.4258 6.90744 4.41899 6.90051 4.41899C6.90051 4.41899 6.89964 4.41899 6.89878 4.41899L6.89964 4.41814Z" fill="white"/>
<path d="M7.66663 5.71575C7.61463 5.71575 7.56523 5.70214 7.52363 5.67578C7.3763 5.5814 7.3919 5.37563 7.43784 5.26084C7.48723 5.13754 7.6077 5.01085 7.75502 5.02275C7.82522 5.0287 7.87115 5.06442 7.88935 5.07802C8.01068 5.1707 8.07481 5.37818 7.97688 5.53803C7.92575 5.62136 7.83649 5.68514 7.73856 5.70724C7.71429 5.71234 7.69003 5.71575 7.66663 5.71575ZM7.6389 5.50232C7.65016 5.50912 7.66923 5.51082 7.69089 5.50572C7.73249 5.49637 7.77496 5.46661 7.79662 5.43175C7.83822 5.36372 7.80182 5.27359 7.75936 5.24043C7.75242 5.23533 7.74462 5.22852 7.73682 5.22852C7.71256 5.22427 7.65796 5.27699 7.63456 5.33651C7.61116 5.39518 7.60856 5.48361 7.6389 5.50317V5.50232Z" fill="white"/>
</g>
<defs>
<filter id="filter0_d_487_12457" x="0" y="0" width="26" height="26" filterUnits="userSpaceOnUse" color-interpolation-filters="sRGB">
<feFlood flood-opacity="0" result="BackgroundImageFix"/>
<feColorMatrix in="SourceAlpha" type="matrix" values="0 0 0 0 0 0 0 0 0 0 0 0 0 0 0 0 0 0 127 0" result="hardAlpha"/>
<feOffset dy="4"/>
<feGaussianBlur stdDeviation="2"/>
<feComposite in2="hardAlpha" operator="out"/>
<feColorMatrix type="matrix" values="0 0 0 0 0 0 0 0 0 0 0 0 0 0 0 0 0 0 0.25 0"/>
<feBlend mode="normal" in2="BackgroundImageFix" result="effect1_dropShadow_487_12457"/>
<feBlend mode="normal" in="SourceGraphic" in2="effect1_dropShadow_487_12457" result="shape"/>
</filter>
<clipPath id="clip0_487_12457">
<rect width="18" height="18" fill="white" transform="translate(4)"/>
</clipPath>
</defs>
</svg>
